<svg width="40" height="40" viewBox="0 0 40 40" fill="none" xmlns="http://www.w3.org/2000/svg">
<path d="M0.117188 9.6875C0.117188 8.20312 1.13281 7.61719 2.38281 7.53906L8.20312 7.57812C8.55469 7.57812 8.86719 7.8125 8.98438 8.16406C10.3125 12.4609 11.9531 15.1172 13.9062 18.125C14.0234 18.3594 14.2188 18.4766 14.4141 18.4766C14.5703 18.4766 14.7266 18.3984 14.8438 18.2031L14.9609 17.7734L15 11.0156C15 10.0391 14.5312 9.88281 13.4375 9.72656C13.0078 9.64844 12.7344 9.25781 12.7344 8.86719C12.7344 8.78906 12.7344 8.71094 12.7734 8.63281C13.3203 6.95312 15.0391 6.09375 17.4609 6.09375L19.6484 6.05469C21.4453 6.05469 23.0859 6.83594 23.0859 9.14062V18.0078C23.2422 18.125 23.3984 18.2031 23.5938 18.2031C23.9062 18.2031 24.2969 18.0078 24.6094 17.5C26.6406 14.6484 28.9453 11.25 29.2578 9.45312C29.2578 9.375 29.2969 9.33594 29.3359 9.25781C29.7656 8.39844 30.8594 7.8125 31.3281 7.65625C31.4062 7.61719 31.5234 7.57812 31.6797 7.57812H37.7344L38.125 7.61719C38.7109 7.61719 39.1406 8.00781 39.3359 8.35938C39.6875 8.90625 39.6094 9.49219 39.6484 9.72656V10C39.0625 13.5547 35 17.5391 33.2812 20.1172C33.0469 20.4297 32.9297 20.7031 32.9297 20.9766C32.9297 21.2109 33.0469 21.4453 33.2422 21.6797L38.9453 28.8672C39.2578 29.2969 39.4141 29.8047 39.4141 30.2344C39.4141 31.5234 38.2031 32.2656 37.0312 32.3828L36.3672 32.4219H30.4297C30.3125 32.4219 30.2344 32.4609 30.1172 32.4609C29.4531 32.4609 28.9062 32.1094 28.5156 31.7188C27.2656 30.1953 26.0547 28.6328 24.8438 27.1094C24.6094 26.7969 24.5312 26.7578 24.2969 26.6016C24.0234 27.7344 23.7891 28.9062 23.5156 30.0781L23.3984 30.7422C23.2031 31.4453 22.6953 32.1875 21.7578 32.3828L21.2109 32.4219H17.3828C10.625 32.4219 4.57031 22.8125 0.3125 10.8203C0.195312 10.5078 0.117188 10.0781 0.117188 9.6875ZM23.5938 19.8047C22.5781 19.8047 21.4453 19.2188 21.4453 18.125V9.14062C21.4453 8.08594 20.9766 7.69531 19.6875 7.69531L17.4609 7.77344C16.2109 7.77344 15.5078 7.96875 14.9219 8.35938C15.8203 8.78906 16.6406 9.375 16.6406 11.0156V17.8906C16.5234 19.2578 15.3906 20.1562 14.2969 20.1562C13.5547 20.1562 12.8906 19.7266 12.5 19.0234C10.7422 16.3672 9.25781 13.8672 7.96875 10.2734L7.61719 9.25781L2.42188 9.21875C1.71875 9.21875 1.79688 9.25781 1.79688 9.60938C1.79688 9.84375 1.83594 10.1562 1.875 10.3516L2.69531 12.5391C6.95312 23.5547 12.3047 30.7812 17.3828 30.7812H21.2891C21.8359 30.7812 21.7969 30.1172 21.9141 29.7266L22.6562 26.2891C22.8125 25.9375 22.9297 25.625 23.2031 25.3516C23.5156 25.0391 23.8672 24.9219 24.2188 24.9219C24.9609 24.9219 25.6641 25.5078 26.1328 26.0547L29.4531 30.2734C29.7266 30.7031 29.9609 30.7812 30.1172 30.7812H36.5625C37.1875 30.7812 37.7344 30.5859 37.7344 30.1953C37.7344 30.0781 37.6953 29.9219 37.6172 29.8047L31.9531 22.7344C31.4844 22.1484 31.2891 21.5625 31.2891 20.9766C31.2891 20.3516 31.5234 19.7266 31.9141 19.1797C33.5547 16.7188 37.0703 13.2031 37.8906 10.3125L38.0078 9.80469C37.9688 9.60938 37.9688 9.45312 37.9297 9.25781H31.7969C31.4062 9.41406 31.0938 9.64844 30.8594 9.96094L30.625 10.7031C29.7266 13.2031 27.2656 16.6406 25.5078 19.0234C24.9219 19.5703 24.2578 19.8047 23.5938 19.8047Z" fill="white"/>
</svg>
